<svg width="32" height="32" viewBox="0 0 32 32" fill="none" xmlns="http://www.w3.org/2000/svg">
<path d="M16.1234 31.5837C7.51809 31.5837 0.521729 24.5995 0.521729 16.0064C0.521729 7.40116 7.51809 0.416992 16.1234 0.416992C24.7286 0.416992 31.725 7.40116 31.725 15.9942C31.725 24.5873 24.7286 31.5837 16.1234 31.5837ZM29.275 18.1273C28.8241 17.981 25.1552 16.8962 20.9745 17.5544C22.7175 22.3324 23.4244 26.2328 23.5585 27.0373C26.5569 25.0261 28.69 21.8327 29.275 18.1273ZM21.328 28.2683C21.1329 27.0982 20.3529 23.0272 18.488 18.176C18.4636 18.1882 18.427 18.2004 18.4027 18.2004C10.8822 20.821 8.18847 26.0256 7.94469 26.5132C10.1996 28.2683 13.0396 29.3166 16.1234 29.3166C17.9639 29.3288 19.7312 28.9509 21.328 28.2683ZM6.22607 24.9164C6.53079 24.4045 10.1874 18.3589 17.0619 16.1283C17.2325 16.0674 17.4154 16.0186 17.586 15.9699C17.2569 15.2142 16.8913 14.4585 16.5012 13.7149C9.84614 15.7017 3.38609 15.6164 2.80103 15.6042C2.80103 15.7383 2.78884 15.8724 2.78884 16.0064C2.80103 19.4315 4.09304 22.5518 6.22607 24.9164ZM3.08137 13.2883C3.67862 13.3005 9.16357 13.3249 15.4042 11.6672C13.1981 7.74245 10.8091 4.45148 10.4678 3.97611C6.72581 5.7313 3.94677 9.16853 3.08137 13.2883ZM13.003 3.07414C13.3687 3.5617 15.7943 6.85266 17.9761 10.8628C22.7175 9.08321 24.7164 6.40168 24.9602 6.06039C22.6078 3.97611 19.5118 2.70848 16.1234 2.70848C15.0507 2.70848 14.0025 2.84256 13.003 3.07414ZM26.4351 7.59618C26.1547 7.97403 23.9242 10.8384 18.9999 12.8495C19.3046 13.4834 19.6093 14.1294 19.8897 14.7754C19.9872 15.007 20.0847 15.2385 20.1822 15.4579C24.6189 14.8973 29.0191 15.7992 29.4579 15.8845C29.4213 12.752 28.2999 9.86329 26.4351 7.59618Z" fill="#0F0F0F"/>
</svg>
